<svg width="12" height="12" viewBox="0 0 12 12" fill="none" xmlns="http://www.w3.org/2000/svg">
<path d="M1.52724 11.4885C1.52724 11.4885 0.636719 11.4885 0.636719 10.598C0.636719 9.70746 1.52724 7.0359 5.97985 7.0359C10.4325 7.0359 11.323 9.70746 11.323 10.598C11.323 11.4885 10.4325 11.4885 10.4325 11.4885H1.52724ZM5.97985 6.14537C6.68839 6.14537 7.36791 5.86391 7.86893 5.36289C8.36994 4.86188 8.65141 4.18235 8.65141 3.47381C8.65141 2.76527 8.36994 2.08574 7.86893 1.58473C7.36791 1.08371 6.68839 0.802246 5.97985 0.802246C5.2713 0.802246 4.59178 1.08371 4.09077 1.58473C3.58975 2.08574 3.30828 2.76527 3.30828 3.47381C3.30828 4.18235 3.58975 4.86188 4.09077 5.36289C4.59178 5.86391 5.2713 6.14537 5.97985 6.14537Z" fill="#344BFD"/>
</svg>
