<svg width="16" height="16" viewBox="0 0 16 16" fill="none" xmlns="http://www.w3.org/2000/svg">
<path d="M3.58583 13.4529C3.58583 13.4529 2.69531 13.4529 2.69531 12.5623C2.69531 11.6718 3.58583 9.00025 8.03844 9.00025C12.491 9.00025 13.3816 11.6718 13.3816 12.5623C13.3816 13.4529 12.491 13.4529 12.491 13.4529H3.58583ZM8.03844 8.10973C8.74698 8.10973 9.42651 7.82826 9.92752 7.32725C10.4285 6.82623 10.71 6.14671 10.71 5.43817C10.71 4.72962 10.4285 4.0501 9.92752 3.54908C9.42651 3.04807 8.74698 2.7666 8.03844 2.7666C7.3299 2.7666 6.65038 3.04807 6.14936 3.54908C5.64834 4.0501 5.36688 4.72962 5.36688 5.43817C5.36688 6.14671 5.64834 6.82623 6.14936 7.32725C6.65038 7.82826 7.3299 8.10973 8.03844 8.10973Z" fill="#F4A79D"/>
</svg>
