<svg width="26" height="26" viewBox="0 0 26 26" fill="none" xmlns="http://www.w3.org/2000/svg">
<path d="M15.0397 6.62568C14.7857 6.37169 14.4412 6.229 14.082 6.229C13.7228 6.229 13.3784 6.37169 13.1244 6.62568C12.8704 6.87967 12.7277 7.22415 12.7277 7.58335C12.7277 7.94254 12.8704 8.28703 13.1244 8.54102L16.2292 11.6458H6.4987C6.13955 11.6458 5.79511 11.7885 5.54116 12.0425C5.2872 12.2964 5.14453 12.6409 5.14453 13C5.14453 13.3592 5.2872 13.7036 5.54116 13.9576C5.79511 14.2115 6.13955 14.3542 6.4987 14.3542H16.2292L13.1244 17.459C12.8704 17.713 12.7277 18.0575 12.7277 18.4167C12.7277 18.7759 12.8704 19.1204 13.1244 19.3744C13.3784 19.6283 13.7228 19.771 14.082 19.771C14.4412 19.771 14.7857 19.6283 15.0397 19.3744L20.4564 13.9577C20.5821 13.8319 20.6819 13.6826 20.75 13.5183C20.8181 13.354 20.8531 13.1779 20.8531 13C20.8531 12.8222 20.8181 12.646 20.75 12.4817C20.6819 12.3174 20.5821 12.1681 20.4564 12.0423L15.0397 6.62568Z" fill="white"/>
</svg>
