<svg width="20" height="20" viewBox="0 0 20 20" fill="none" xmlns="http://www.w3.org/2000/svg">
<path d="M11.73 7.19375L8.4675 1.83125C8.255 1.46875 7.87375 1.25 7.455 1.25H3.33625C2.43 1.25 1.86125 2.225 2.305 3.0125C3.12978 4.4717 4.29385 5.7108 5.69875 6.625C6.17375 6.99375 6.76125 7.19375 7.3675 7.19375H11.73Z" fill="#0074BA"/>
<path d="M16.6613 1.25H12.5425C12.1238 1.25 11.7425 1.46875 11.53 1.83125L8.2675 7.19375H12.6363C13.2425 7.19375 13.8238 6.99375 14.305 6.625C15.7113 5.7125 16.8738 4.475 17.6988 3.0125C18.1363 2.225 17.5675 1.25 16.6613 1.25Z" fill="#00A6ED"/>
<path d="M9.99375 18.75C13.4594 18.75 16.2688 15.8706 16.2688 12.3188C16.2688 8.76689 13.4594 5.88751 9.99375 5.88751C6.52812 5.88751 3.71875 8.76689 3.71875 12.3188C3.71875 15.8706 6.52812 18.75 9.99375 18.75Z" fill="#FFB02E"/>
<path d="M8.7975 10.0256C8.7975 9.85987 8.86335 9.7009 8.98056 9.58369C9.09777 9.46648 9.25674 9.40063 9.4225 9.40063H10C10.1658 9.40063 10.3247 9.46648 10.4419 9.58369C10.5592 9.7009 10.625 9.85987 10.625 10.0256V14.375C10.625 14.5408 10.5592 14.6997 10.4419 14.817C10.3247 14.9342 10.1658 15 10 15C9.83424 15 9.67527 14.9342 9.55806 14.817C9.44085 14.6997 9.375 14.5408 9.375 14.375V10.6488C9.21793 10.6368 9.07117 10.5659 8.9641 10.4504C8.85702 10.3349 8.79752 10.1832 8.7975 10.0256Z" fill="#6D4534"/>
<path d="M10 17.975C8.52501 17.975 7.13751 17.3875 6.10001 16.3187C5.05594 15.2498 4.47445 13.8129 4.48126 12.3187C4.48126 10.8062 5.05626 9.38749 6.10001 8.31874C6.60644 7.79537 7.21296 7.37919 7.88349 7.09497C8.55401 6.81074 9.27486 6.66428 10.0031 6.66428C10.7314 6.66428 11.4523 6.81074 12.1228 7.09497C12.7933 7.37919 13.3998 7.79537 13.9063 8.31874C16.0563 10.525 16.0563 14.1125 13.9063 16.3187C12.8563 17.3875 11.4688 17.975 10 17.975ZM9.99376 7.43124C8.77501 7.43124 7.55001 7.90624 6.62501 8.86249C5.72508 9.78717 5.22453 11.0284 5.23126 12.3187C5.23126 13.625 5.72501 14.85 6.62501 15.775C7.06138 16.2279 7.58465 16.5881 8.16349 16.834C8.74233 17.0799 9.36484 17.2065 9.99376 17.2062C11.2688 17.2062 12.4625 16.7 13.3625 15.775C15.2188 13.8687 15.2188 10.7687 13.3625 8.86249C12.9266 8.40902 12.4034 8.04845 11.8245 7.80248C11.2455 7.55651 10.6228 7.43023 9.99376 7.43124Z" fill="#FCD53F"/>
</svg>
