<svg width="20" height="18" viewBox="0 0 20 18" fill="none" xmlns="http://www.w3.org/2000/svg">
<path d="M19.375 9C19.375 9.16576 19.3092 9.32473 19.1919 9.44194C19.0747 9.55915 18.9158 9.625 18.75 9.625H17.4477C17.2988 10.4983 16.846 11.2908 16.1694 11.8627C15.4928 12.4345 14.6359 12.7488 13.75 12.75H10.625V14.625H12.5C13.163 14.625 13.7989 14.8884 14.2678 15.3572C14.7366 15.8261 15 16.462 15 17.125C15 17.2908 14.9342 17.4497 14.8169 17.5669C14.6997 17.6842 14.5408 17.75 14.375 17.75C14.2092 17.75 14.0503 17.6842 13.9331 17.5669C13.8158 17.4497 13.75 17.2908 13.75 17.125C13.75 16.7935 13.6183 16.4755 13.3839 16.2411C13.1495 16.0067 12.8315 15.875 12.5 15.875H10.625V17.125C10.625 17.2908 10.5592 17.4497 10.4419 17.5669C10.3247 17.6842 10.1658 17.75 10 17.75C9.83424 17.75 9.67527 17.6842 9.55806 17.5669C9.44085 17.4497 9.375 17.2908 9.375 17.125V15.875H7.5C7.16848 15.875 6.85054 16.0067 6.61612 16.2411C6.3817 16.4755 6.25 16.7935 6.25 17.125C6.25 17.2908 6.18415 17.4497 6.06694 17.5669C5.94973 17.6842 5.79076 17.75 5.625 17.75C5.45924 17.75 5.30027 17.6842 5.18306 17.5669C5.06585 17.4497 5 17.2908 5 17.125C5 16.462 5.26339 15.8261 5.73223 15.3572C6.20107 14.8884 6.83696 14.625 7.5 14.625H9.375V12.75H6.25C5.36412 12.7488 4.50718 12.4345 3.83056 11.8627C3.15395 11.2908 2.70122 10.4983 2.55234 9.625H1.25C1.08424 9.625 0.925268 9.55915 0.808058 9.44194C0.690848 9.32473 0.625 9.16576 0.625 9C0.625 8.83424 0.690848 8.67527 0.808058 8.55806C0.925268 8.44085 1.08424 8.375 1.25 8.375H3.125C3.29076 8.375 3.44973 8.44085 3.56694 8.55806C3.68415 8.67527 3.75 8.83424 3.75 9C3.75 9.66304 4.01339 10.2989 4.48223 10.7678C4.95107 11.2366 5.58696 11.5 6.25 11.5H13.75C14.413 11.5 15.0489 11.2366 15.5178 10.7678C15.9866 10.2989 16.25 9.66304 16.25 9C16.25 8.83424 16.3158 8.67527 16.4331 8.55806C16.5503 8.44085 16.7092 8.375 16.875 8.375H18.75C18.9158 8.375 19.0747 8.44085 19.1919 8.55806C19.3092 8.67527 19.375 8.83424 19.375 9ZM6.25 10.25H13.75C13.9291 10.25 14.1061 10.2115 14.269 10.1372C14.4319 10.0628 14.5769 9.95437 14.6943 9.8191C14.8116 9.68383 14.8985 9.52492 14.9491 9.35314C14.9997 9.18136 15.0128 9.00072 14.9875 8.82344L13.9156 1.32344C13.8719 1.02606 13.723 0.754217 13.4959 0.55726C13.2689 0.360303 12.9787 0.251287 12.6781 0.25H7.32188C7.0213 0.251287 6.73115 0.360303 6.50409 0.55726C6.27703 0.754217 6.12811 1.02606 6.08437 1.32344L5.0125 8.82344C4.98721 9.00072 5.0003 9.18136 5.05089 9.35314C5.10148 9.52492 5.18839 9.68383 5.30573 9.8191C5.42307 9.95437 5.56811 10.0628 5.73103 10.1372C5.89394 10.2115 6.07093 10.25 6.25 10.25Z" fill="black"/>
</svg>
