<svg width="16" height="17" viewBox="0 0 16 17" fill="none" xmlns="http://www.w3.org/2000/svg">
<path fill-rule="evenodd" clip-rule="evenodd" d="M3.88676 5.94978C3.88676 4.93655 4.28926 3.96482 5.00572 3.24836C5.72218 2.5319 6.69392 2.12939 7.70715 2.12939C8.72038 2.12939 9.69211 2.5319 10.4086 3.24836C11.125 3.96482 11.5275 4.93655 11.5275 5.94978H12.1643C12.502 5.94978 12.8259 6.08395 13.0647 6.32277C13.3036 6.56159 13.4377 6.8855 13.4377 7.22325V13.5906C13.4377 13.9283 13.3036 14.2522 13.0647 14.491C12.8259 14.7299 12.502 14.864 12.1643 14.864H3.25003C2.91228 14.864 2.58837 14.7299 2.34955 14.491C2.11073 14.2522 1.97656 13.9283 1.97656 13.5906V7.22325C1.97656 6.8855 2.11073 6.56159 2.34955 6.32277C2.58837 6.08395 2.91228 5.94978 3.25003 5.94978H3.88676ZM7.70715 3.40286C8.38263 3.40286 9.03045 3.67119 9.50809 4.14883C9.98573 4.62648 10.2541 5.2743 10.2541 5.94978H5.16022C5.16022 5.2743 5.42856 4.62648 5.9062 4.14883C6.38384 3.67119 7.03166 3.40286 7.70715 3.40286ZM8.98061 9.77017C8.9806 9.99371 8.92176 10.2133 8.80999 10.4069C8.69822 10.6005 8.53746 10.7612 8.34388 10.873V11.6804C8.34388 11.8492 8.27679 12.0112 8.15738 12.1306C8.03797 12.25 7.87602 12.3171 7.70715 12.3171C7.53827 12.3171 7.37632 12.25 7.25691 12.1306C7.1375 12.0112 7.07041 11.8492 7.07041 11.6804V10.873C6.82765 10.7328 6.63793 10.5165 6.53066 10.2575C6.42339 9.99849 6.40458 9.71134 6.47713 9.44057C6.54969 9.1698 6.70955 8.93054 6.93195 8.75988C7.15434 8.58923 7.42682 8.49672 7.70715 8.49671C8.04489 8.49671 8.3688 8.63088 8.60762 8.8697C8.84644 9.10852 8.98061 9.43243 8.98061 9.77017Z" fill="black"/>
</svg>
