<svg width="11" height="11" viewBox="0 0 11 11" fill="none" xmlns="http://www.w3.org/2000/svg">
<path d="M4.9021 1.97832C4.94482 1.89162 5.01097 1.81862 5.09304 1.76756C5.17511 1.71651 5.26984 1.68945 5.36649 1.68945C5.46315 1.68945 5.55787 1.71651 5.63994 1.76756C5.72202 1.81862 5.78816 1.89162 5.83088 1.97832L6.83008 4.00259L9.06506 4.32772C9.16068 4.34161 9.25051 4.38198 9.32438 4.44426C9.39825 4.50655 9.45322 4.58826 9.48306 4.68016C9.51291 4.77206 9.51643 4.87048 9.49325 4.96428C9.47007 5.05809 9.42109 5.14353 9.35187 5.21095L7.73453 6.78687L8.1166 9.01306C8.13291 9.10826 8.12227 9.20614 8.08586 9.29561C8.04945 9.38508 7.98874 9.46259 7.91059 9.51936C7.83243 9.57613 7.73996 9.6099 7.64361 9.61686C7.54726 9.62382 7.45089 9.60368 7.3654 9.55873L5.36701 8.50776L3.36759 9.55873C3.28206 9.60358 3.18569 9.62362 3.08938 9.61658C2.99306 9.60954 2.90063 9.57569 2.82254 9.51887C2.74445 9.46205 2.68381 9.38453 2.64747 9.29505C2.61113 9.20557 2.60054 9.10772 2.6169 9.01254L2.99846 6.78687L1.38111 5.21095C1.31189 5.14353 1.26292 5.05809 1.23973 4.96428C1.21655 4.87048 1.22008 4.77206 1.24992 4.68016C1.27977 4.58826 1.33473 4.50655 1.4086 4.44426C1.48247 4.38198 1.5723 4.34161 1.66792 4.32772L3.90291 4.00311L4.9021 1.97832Z" fill="black"/>
</svg>
