<svg width="17" height="18" viewBox="0 0 17 18" fill="none" xmlns="http://www.w3.org/2000/svg">
<path d="M3.20041 15.3587C3.20041 15.3587 2.14062 15.3587 2.14062 14.2989C2.14062 13.2391 3.20041 10.0598 8.49932 10.0598C13.7982 10.0598 14.858 13.2391 14.858 14.2989C14.858 15.3587 13.7982 15.3587 13.7982 15.3587H3.20041ZM8.49932 8.99999C9.34254 8.99999 10.1512 8.66503 10.7475 8.06878C11.3437 7.47254 11.6787 6.66386 11.6787 5.82064C11.6787 4.97743 11.3437 4.16875 10.7475 3.57251C10.1512 2.97626 9.34254 2.6413 8.49932 2.6413C7.65611 2.6413 6.84743 2.97626 6.25118 3.57251C5.65494 4.16875 5.31997 4.97743 5.31997 5.82064C5.31997 6.66386 5.65494 7.47254 6.25118 8.06878C6.84743 8.66503 7.65611 8.99999 8.49932 8.99999Z" fill="#606060"/>
</svg>
