<svg width="141" height="140" viewBox="0 0 141 140" fill="none" xmlns="http://www.w3.org/2000/svg">
<circle cx="70.5" cy="70" r="70" fill="#D9D9D9"/>
<rect x="110.5" y="110" width="30" height="30" rx="15" fill="#C7C7C7"/>
<path d="M120.2 131.359C120.2 131.359 119.141 131.359 119.141 130.299C119.141 129.239 120.2 126.06 125.499 126.06C130.798 126.06 131.858 129.239 131.858 130.299C131.858 131.359 130.798 131.359 130.798 131.359H120.2ZM125.499 125C126.343 125 127.151 124.665 127.747 124.069C128.344 123.473 128.679 122.664 128.679 121.821C128.679 120.977 128.344 120.169 127.747 119.573C127.151 118.976 126.343 118.641 125.499 118.641C124.656 118.641 123.847 118.976 123.251 119.573C122.655 120.169 122.32 120.977 122.32 121.821C122.32 122.664 122.655 123.473 123.251 124.069C123.847 124.665 124.656 125 125.499 125Z" fill="#606060"/>
</svg>
