<svg width="57" height="56" viewBox="0 0 57 56" fill="none" xmlns="http://www.w3.org/2000/svg">
<rect x="0.78125" y="1.11133" width="54.8494" height="54.1637" rx="14.5" stroke="#E2E8F0"/>
<path d="M35.7859 27.003L35.707 26.6723H28.4312V29.7139H32.7784C32.3271 31.8308 30.2327 32.9451 28.522 32.9451C27.2772 32.9451 25.9651 32.428 25.0967 31.5967C24.6385 31.1512 24.2737 30.6207 24.0234 30.0357C23.773 29.4507 23.6419 28.8227 23.6376 28.1876C23.6376 26.9064 24.2205 25.6249 25.0687 24.7819C25.9169 23.939 27.198 23.4673 28.4717 23.4673C29.9304 23.4673 30.9758 24.2324 31.3668 24.5813L33.555 22.4313C32.9131 21.8741 31.1497 20.4702 28.4012 20.4702C26.2807 20.4702 24.2474 21.2725 22.7611 22.7357C21.2944 24.1765 20.5352 26.26 20.5352 28.1931C20.5352 30.1263 21.2535 32.1056 22.6749 33.5578C24.1936 35.1065 26.3445 35.9161 28.5593 35.9161C30.5744 35.9161 32.4845 35.1362 33.8458 33.7212C35.1841 32.3283 35.8763 30.4011 35.8763 28.3807C35.8763 27.5301 35.7897 27.025 35.7859 27.003Z" fill="#2D3748"/>
</svg>
