<svg width="18" height="16" viewBox="0 0 18 16" fill="none" xmlns="http://www.w3.org/2000/svg">
<path d="M7.92071 2.57929L7.9207 2.5793L7.92303 2.58169L8.5431 3.21818L8.83705 3.51991L9.13095 3.21814L9.74373 2.58894L9.74457 2.58808C10.1148 2.20571 10.5583 1.90194 11.0486 1.69494C11.5389 1.48794 12.066 1.38197 12.5982 1.38336C13.1304 1.38475 13.6569 1.49347 14.1461 1.70302C14.6353 1.91258 15.0772 2.21865 15.4454 2.60295L15.4468 2.60432C16.2086 3.39207 16.6358 4.44418 16.6389 5.54005C16.642 6.63525 16.2213 7.68914 15.4648 8.48103L9.05938 15.0487L9.05909 15.049C8.95391 15.1571 8.78575 15.1571 8.68056 15.049L8.68042 15.0488L2.24258 8.4414L2.24227 8.44107C0.654851 6.81543 0.648416 4.18087 2.22434 2.56348L2.22503 2.56277C2.59514 2.18108 3.03839 1.87792 3.5283 1.6714C4.01821 1.46487 4.54472 1.35923 5.07638 1.36077C5.60804 1.36231 6.13393 1.47101 6.62263 1.68037C7.11133 1.88974 7.55282 2.19546 7.92071 2.57929Z" stroke="white" stroke-width="0.820628"/>
</svg>
