<svg width="32" height="33" viewBox="0 0 32 33" fill="none" xmlns="http://www.w3.org/2000/svg">
<rect x="0.5" y="0.846191" width="31" height="31" rx="15.5" stroke="#FFBF00"/>
<path d="M20.5426 8.29951C20.6876 8.13286 20.8928 8.03056 21.1131 8.01509C21.3334 7.99962 21.5508 8.07225 21.7176 8.21701C22.7954 9.15258 23.6613 10.3071 24.2576 11.6037C24.35 11.8046 24.3588 12.034 24.2821 12.2413C24.2054 12.4487 24.0494 12.6171 23.8485 12.7095C23.6476 12.8019 23.4182 12.8107 23.2108 12.734C23.0034 12.6572 22.835 12.5012 22.7426 12.3003C22.2458 11.219 21.5242 10.2559 20.626 9.47535C20.4592 9.33053 20.3568 9.12542 20.3411 8.90509C20.3255 8.68477 20.398 8.46642 20.5426 8.29951ZM10.2801 8.21701C10.447 8.07203 10.6646 7.99927 10.8851 8.01474C11.1057 8.03021 11.311 8.13265 11.456 8.29951C11.601 8.46638 11.6737 8.68401 11.6583 8.90452C11.6428 9.12503 11.5403 9.33036 11.3735 9.47535C10.4752 10.2559 9.75365 11.219 9.25681 12.3003C9.2124 12.4017 9.14824 12.4933 9.06806 12.5696C8.98789 12.6459 8.89331 12.7055 8.78986 12.7449C8.6864 12.7842 8.57614 12.8026 8.46551 12.7989C8.35488 12.7952 8.2461 12.7694 8.14552 12.7232C8.04494 12.677 7.95457 12.6112 7.8797 12.5297C7.80483 12.4481 7.74695 12.3525 7.70945 12.2484C7.67194 12.1442 7.65556 12.0336 7.66126 11.9231C7.66696 11.8126 7.69463 11.7042 7.74265 11.6045C8.3382 10.3079 9.20325 9.15308 10.2801 8.21701ZM17.8626 22.1795C18.5835 22.1795 18.9643 23.0328 18.4835 23.5695C18.1709 23.9187 17.7881 24.1981 17.3602 24.3894C16.9323 24.5806 16.4689 24.6795 16.0001 24.6795C15.5314 24.6795 15.068 24.5806 14.6401 24.3894C14.2122 24.1981 13.8294 23.9187 13.5168 23.5695C13.0568 23.0562 13.3851 22.2537 14.0451 22.1853L14.1368 22.1803L17.8626 22.1795ZM16.0001 8.01285C17.1318 8.01285 18.0885 8.76535 18.396 9.79701L18.4343 9.93951L18.441 9.97535C19.3598 10.4934 20.1427 11.2219 20.7256 12.101C21.3085 12.9801 21.6747 13.9849 21.7943 15.0328L21.8176 15.272L21.8335 15.5128V17.9553L21.851 18.0687C21.9651 18.6827 22.3049 19.2318 22.8035 19.6078L22.9426 19.7053L23.0776 19.7878C23.7943 20.1937 23.5443 21.2595 22.7635 21.3412L22.6668 21.3462H9.33348C8.47681 21.3462 8.17765 20.2095 8.92265 19.7878C9.24017 19.6082 9.51452 19.3611 9.72643 19.0642C9.93834 18.7672 10.0827 18.4274 10.1493 18.0687L10.1668 17.9495L10.1676 15.4745C10.2185 14.3861 10.5353 13.3267 11.0904 12.3891C11.6455 11.4515 12.422 10.6642 13.3518 10.0962L13.5585 9.97451L13.5668 9.93868C13.6844 9.4402 13.9522 8.98986 14.334 8.64855C14.7159 8.30725 15.1933 8.09145 15.7018 8.03035L15.8535 8.01618L16.0001 8.01285Z" fill="#FFBF00"/>
</svg>
