<svg width="12" height="12" viewBox="0 0 12 12" fill="none" xmlns="http://www.w3.org/2000/svg">
<path d="M1.64052 11.2917C1.64052 11.2917 0.75 11.2917 0.75 10.4012C0.75 9.51068 1.64052 6.83912 6.09313 6.83912C10.5457 6.83912 11.4363 9.51068 11.4363 10.4012C11.4363 11.2917 10.5457 11.2917 10.5457 11.2917H1.64052ZM6.09313 5.9486C6.80167 5.9486 7.48119 5.66713 7.98221 5.16611C8.48322 4.6651 8.76469 3.98558 8.76469 3.27703C8.76469 2.56849 8.48322 1.88897 7.98221 1.38795C7.48119 0.886936 6.80167 0.605469 6.09313 0.605469C5.38459 0.605469 4.70506 0.886936 4.20405 1.38795C3.70303 1.88897 3.42156 2.56849 3.42156 3.27703C3.42156 3.98558 3.70303 4.6651 4.20405 5.16611C4.70506 5.66713 5.38459 5.9486 6.09313 5.9486Z" fill="#00FF55"/>
</svg>
