<svg width="16" height="15" viewBox="0 0 16 15" fill="none" xmlns="http://www.w3.org/2000/svg">
<path d="M7.28707 2.60112C7.34586 2.48182 7.43688 2.38135 7.54981 2.3111C7.66275 2.24085 7.7931 2.20361 7.92611 2.20361C8.05911 2.20361 8.18946 2.24085 8.3024 2.3111C8.41534 2.38135 8.50635 2.48182 8.56514 2.60112L9.94011 5.38667L13.0156 5.83407C13.1472 5.85318 13.2708 5.90873 13.3725 5.99444C13.4741 6.08015 13.5498 6.19259 13.5908 6.31906C13.6319 6.44552 13.6367 6.58095 13.6048 6.71003C13.5729 6.83911 13.5055 6.95668 13.4103 7.04945L11.1847 9.21805L11.7105 12.2814C11.7329 12.4125 11.7183 12.5471 11.6682 12.6703C11.6181 12.7934 11.5345 12.9 11.427 12.9782C11.3194 13.0563 11.1922 13.1028 11.0596 13.1123C10.927 13.1219 10.7944 13.0942 10.6767 13.0323L7.92682 11.5861L5.17546 13.0323C5.05777 13.0941 4.92516 13.1216 4.79262 13.1119C4.66008 13.1022 4.5329 13.0557 4.42544 12.9775C4.31798 12.8993 4.23453 12.7926 4.18452 12.6695C4.13452 12.5464 4.11995 12.4117 4.14246 12.2807L4.66751 9.21805L2.44192 7.04945C2.34667 6.95668 2.27928 6.83911 2.24737 6.71003C2.21547 6.58095 2.22033 6.44552 2.26139 6.31906C2.30246 6.19259 2.3781 6.08015 2.47975 5.99444C2.5814 5.90873 2.70501 5.85318 2.8366 5.83407L5.9121 5.38738L7.28707 2.60112Z" fill="#F68D2B"/>
</svg>
