<svg width="13" height="14" viewBox="0 0 13 14" fill="none" xmlns="http://www.w3.org/2000/svg">
<path fill-rule="evenodd" clip-rule="evenodd" d="M3.41557 5.07859C3.41557 4.23241 3.75172 3.42088 4.35006 2.82254C4.9484 2.22421 5.75992 1.88806 6.6061 1.88806C7.45228 1.88806 8.2638 2.22421 8.86214 2.82254C9.46048 3.42088 9.79662 4.23241 9.79662 5.07859H10.3284C10.6104 5.07859 10.8809 5.19063 11.0804 5.39008C11.2798 5.58953 11.3919 5.86003 11.3919 6.14209V11.4596C11.3919 11.7417 11.2798 12.0122 11.0804 12.2116C10.8809 12.4111 10.6104 12.5231 10.3284 12.5231H2.88382C2.60176 12.5231 2.33125 12.4111 2.13181 12.2116C1.93236 12.0122 1.82031 11.7417 1.82031 11.4596V6.14209C1.82031 5.86003 1.93236 5.58953 2.13181 5.39008C2.33125 5.19063 2.60176 5.07859 2.88382 5.07859H3.41557ZM6.6061 2.95157C7.17022 2.95157 7.71123 3.17567 8.11013 3.57456C8.50902 3.97345 8.73311 4.51447 8.73311 5.07859H4.47908C4.47908 4.51447 4.70318 3.97345 5.10207 3.57456C5.50096 3.17567 6.04198 2.95157 6.6061 2.95157ZM7.66961 8.26911C7.6696 8.45579 7.62046 8.63918 7.52712 8.80085C7.43377 8.96252 7.29952 9.09677 7.13785 9.19011V9.86437C7.13785 10.0054 7.08183 10.1407 6.98211 10.2404C6.88238 10.3401 6.74713 10.3961 6.6061 10.3961C6.46507 10.3961 6.32982 10.3401 6.23009 10.2404C6.13037 10.1407 6.07434 10.0054 6.07434 9.86437V9.19011C5.87161 9.07305 5.71316 8.89236 5.62358 8.67607C5.534 8.45978 5.51828 8.21998 5.57888 7.99385C5.63947 7.76772 5.77298 7.5679 5.95871 7.42539C6.14443 7.28287 6.37199 7.20561 6.6061 7.2056C6.88816 7.2056 7.15867 7.31765 7.35811 7.5171C7.55756 7.71654 7.66961 7.98705 7.66961 8.26911Z" fill="#FF0000"/>
</svg>
