<svg width="27" height="27" viewBox="0 0 27 27" fill="none" xmlns="http://www.w3.org/2000/svg">
<g clip-path="url(#clip0_806_8839)">
<path d="M13.5271 26.1872C16.8919 26.1872 20.119 24.8505 22.4983 22.4712C24.8776 20.0919 26.2143 16.8648 26.2143 13.5C26.2143 10.1351 24.8776 6.90806 22.4983 4.52875C20.119 2.14943 16.8919 0.812744 13.5271 0.812744C10.1622 0.812744 6.93516 2.14943 4.55585 4.52875C2.17653 6.90806 0.839844 10.1351 0.839844 13.5C0.839844 16.8648 2.17653 20.0919 4.55585 22.4712C6.93516 24.8505 10.1622 26.1872 13.5271 26.1872ZM11.9412 11.1211C11.9412 12.4342 11.2307 13.5 10.3553 13.5C9.47984 13.5 8.76936 12.4342 8.76936 11.1211C8.76936 9.80799 9.47984 8.74226 10.3553 8.74226C11.2307 8.74226 11.9412 9.80799 11.9412 11.1211ZM7.63544 15.9851C7.81756 15.8799 8.034 15.8514 8.23713 15.9059C8.44026 15.9603 8.61345 16.0932 8.71861 16.2753C9.2059 17.1193 9.90684 17.8202 10.7509 18.3073C11.595 18.7945 12.5525 19.0509 13.5271 19.0506C14.5017 19.0509 15.4591 18.7945 16.3032 18.3073C17.1473 17.8202 17.8482 17.1193 18.3355 16.2753C18.3872 16.1844 18.4564 16.1046 18.539 16.0405C18.6217 15.9765 18.7162 15.9294 18.8171 15.902C18.918 15.8746 19.0234 15.8674 19.1271 15.8809C19.2308 15.8944 19.3308 15.9282 19.4213 15.9805C19.5119 16.0328 19.5912 16.1025 19.6547 16.1856C19.7183 16.2686 19.7647 16.3634 19.7915 16.4645C19.8182 16.5656 19.8247 16.671 19.8105 16.7746C19.7963 16.8782 19.7618 16.978 19.7089 17.0682C19.0824 18.1534 18.1813 19.0544 17.0961 19.6808C16.011 20.3071 14.78 20.6368 13.5271 20.6365C12.2741 20.6368 11.0432 20.3071 9.95799 19.6808C8.87283 19.0544 7.9717 18.1534 7.34522 17.0682C7.24007 16.8861 7.21158 16.6697 7.266 16.4666C7.32043 16.2634 7.45332 16.0902 7.63544 15.9851ZM16.6989 13.5C15.8235 13.5 15.113 12.4342 15.113 11.1211C15.113 9.80799 15.8235 8.74226 16.6989 8.74226C17.5743 8.74226 18.2848 9.80799 18.2848 11.1211C18.2848 12.4342 17.5743 13.5 16.6989 13.5Z" fill="#5F4CBF"/>
</g>
<defs>
<clipPath id="clip0_806_8839">
<rect width="25.3744" height="25.3744" fill="white" transform="translate(0.839844 0.812744)"/>
</clipPath>
</defs>
</svg>
